<mxfile host="app.diagrams.net" modified="2020-09-18T15:24:49.913Z" agent="5.0 (Macintosh; Intel Mac OS X 10_14_6) AppleWebKit/537.36 (KHTML, like Gecko) Chrome/76.0.3809.100 Safari/537.36" etag="-qFjhmp_jfBbKD_ifK7Q" version="13.7.3" type="github">
  <diagram id="R2lEEEUBdFMjLlhIrx00" name="Page-1">
    <mxGraphModel dx="786" dy="803" grid="1" gridSize="10" guides="1" tooltips="1" connect="1" arrows="1" fold="1" page="1" pageScale="1" pageWidth="850" pageHeight="1100" math="0" shadow="0" extFonts="Permanent Marker^https://fonts.googleapis.com/css?family=Permanent+Marker">
      <root>
        <mxCell id="0" />
        <mxCell id="1" parent="0" />
        <mxCell id="JYo3s5OnzRLxT3fMQ4ct-1" value="" style="shape=actor;whiteSpace=wrap;html=1;" vertex="1" parent="1">
          <mxGeometry x="170" y="200" width="40" height="60" as="geometry" />
        </mxCell>
        <mxCell id="JYo3s5OnzRLxT3fMQ4ct-2" value="consumer" style="text;html=1;align=center;verticalAlign=middle;resizable=0;points=[];autosize=1;" vertex="1" parent="1">
          <mxGeometry x="155" y="170" width="70" height="20" as="geometry" />
        </mxCell>
        <mxCell id="JYo3s5OnzRLxT3fMQ4ct-3" value="" style="rounded=0;whiteSpace=wrap;html=1;" vertex="1" parent="1">
          <mxGeometry x="260" y="150" width="320" height="360" as="geometry" />
        </mxCell>
        <mxCell id="JYo3s5OnzRLxT3fMQ4ct-4" value="" style="shape=actor;whiteSpace=wrap;html=1;" vertex="1" parent="1">
          <mxGeometry x="170" y="380" width="40" height="60" as="geometry" />
        </mxCell>
        <mxCell id="JYo3s5OnzRLxT3fMQ4ct-5" value="admin" style="text;html=1;align=center;verticalAlign=middle;resizable=0;points=[];autosize=1;" vertex="1" parent="1">
          <mxGeometry x="165" y="350" width="50" height="20" as="geometry" />
        </mxCell>
        <mxCell id="JYo3s5OnzRLxT3fMQ4ct-6" value="" style="shape=actor;whiteSpace=wrap;html=1;" vertex="1" parent="1">
          <mxGeometry x="655" y="200" width="40" height="60" as="geometry" />
        </mxCell>
        <mxCell id="JYo3s5OnzRLxT3fMQ4ct-7" value="waiter" style="text;html=1;align=center;verticalAlign=middle;resizable=0;points=[];autosize=1;" vertex="1" parent="1">
          <mxGeometry x="650" y="170" width="50" height="20" as="geometry" />
        </mxCell>
        <mxCell id="JYo3s5OnzRLxT3fMQ4ct-8" value="收款机" style="rounded=1;whiteSpace=wrap;html=1;" vertex="1" parent="1">
          <mxGeometry x="615" y="300" width="120" height="60" as="geometry" />
        </mxCell>
        <mxCell id="JYo3s5OnzRLxT3fMQ4ct-9" value="管理中心" style="rounded=1;whiteSpace=wrap;html=1;" vertex="1" parent="1">
          <mxGeometry x="615" y="400" width="120" height="60" as="geometry" />
        </mxCell>
        <mxCell id="JYo3s5OnzRLxT3fMQ4ct-10" value="register" style="ellipse;whiteSpace=wrap;html=1;" vertex="1" parent="1">
          <mxGeometry x="290" y="163" width="120" height="80" as="geometry" />
        </mxCell>
        <mxCell id="JYo3s5OnzRLxT3fMQ4ct-11" value="insert card" style="ellipse;whiteSpace=wrap;html=1;" vertex="1" parent="1">
          <mxGeometry x="290" y="253" width="120" height="80" as="geometry" />
        </mxCell>
        <mxCell id="JYo3s5OnzRLxT3fMQ4ct-12" value="recharge" style="ellipse;whiteSpace=wrap;html=1;" vertex="1" parent="1">
          <mxGeometry x="430" y="163" width="120" height="80" as="geometry" />
        </mxCell>
        <mxCell id="JYo3s5OnzRLxT3fMQ4ct-13" value="" style="endArrow=none;html=1;exitX=0.9;exitY=0.5;exitDx=0;exitDy=0;exitPerimeter=0;" edge="1" parent="1" source="JYo3s5OnzRLxT3fMQ4ct-1" target="JYo3s5OnzRLxT3fMQ4ct-10">
          <mxGeometry width="50" height="50" relative="1" as="geometry">
            <mxPoint x="220" y="250" as="sourcePoint" />
            <mxPoint x="270" y="200" as="targetPoint" />
          </mxGeometry>
        </mxCell>
        <mxCell id="JYo3s5OnzRLxT3fMQ4ct-14" value="" style="endArrow=none;html=1;" edge="1" parent="1" source="JYo3s5OnzRLxT3fMQ4ct-10" target="JYo3s5OnzRLxT3fMQ4ct-9">
          <mxGeometry width="50" height="50" relative="1" as="geometry">
            <mxPoint x="380" y="440" as="sourcePoint" />
            <mxPoint x="430" y="390" as="targetPoint" />
          </mxGeometry>
        </mxCell>
        <mxCell id="JYo3s5OnzRLxT3fMQ4ct-15" value="" style="endArrow=none;html=1;entryX=0.5;entryY=1;entryDx=0;entryDy=0;" edge="1" parent="1" source="JYo3s5OnzRLxT3fMQ4ct-9" target="JYo3s5OnzRLxT3fMQ4ct-12">
          <mxGeometry width="50" height="50" relative="1" as="geometry">
            <mxPoint x="380" y="440" as="sourcePoint" />
            <mxPoint x="430" y="390" as="targetPoint" />
          </mxGeometry>
        </mxCell>
        <mxCell id="JYo3s5OnzRLxT3fMQ4ct-16" value="" style="endArrow=none;html=1;exitX=1;exitY=0.75;exitDx=0;exitDy=0;" edge="1" parent="1" source="JYo3s5OnzRLxT3fMQ4ct-1" target="JYo3s5OnzRLxT3fMQ4ct-12">
          <mxGeometry width="50" height="50" relative="1" as="geometry">
            <mxPoint x="380" y="440" as="sourcePoint" />
            <mxPoint x="430" y="390" as="targetPoint" />
          </mxGeometry>
        </mxCell>
        <mxCell id="JYo3s5OnzRLxT3fMQ4ct-17" value="" style="endArrow=none;html=1;entryX=0.975;entryY=0.983;entryDx=0;entryDy=0;entryPerimeter=0;" edge="1" parent="1" source="JYo3s5OnzRLxT3fMQ4ct-11" target="JYo3s5OnzRLxT3fMQ4ct-1">
          <mxGeometry width="50" height="50" relative="1" as="geometry">
            <mxPoint x="380" y="440" as="sourcePoint" />
            <mxPoint x="430" y="390" as="targetPoint" />
          </mxGeometry>
        </mxCell>
        <mxCell id="JYo3s5OnzRLxT3fMQ4ct-18" value="" style="endArrow=none;html=1;" edge="1" parent="1" source="JYo3s5OnzRLxT3fMQ4ct-11" target="JYo3s5OnzRLxT3fMQ4ct-8">
          <mxGeometry width="50" height="50" relative="1" as="geometry">
            <mxPoint x="380" y="440" as="sourcePoint" />
            <mxPoint x="430" y="390" as="targetPoint" />
          </mxGeometry>
        </mxCell>
        <mxCell id="JYo3s5OnzRLxT3fMQ4ct-19" value="consume" style="ellipse;whiteSpace=wrap;html=1;" vertex="1" parent="1">
          <mxGeometry x="290" y="343" width="120" height="80" as="geometry" />
        </mxCell>
        <mxCell id="JYo3s5OnzRLxT3fMQ4ct-20" value="" style="endArrow=none;html=1;" edge="1" parent="1" source="JYo3s5OnzRLxT3fMQ4ct-19" target="JYo3s5OnzRLxT3fMQ4ct-6">
          <mxGeometry width="50" height="50" relative="1" as="geometry">
            <mxPoint x="380" y="440" as="sourcePoint" />
            <mxPoint x="430" y="390" as="targetPoint" />
          </mxGeometry>
        </mxCell>
        <mxCell id="JYo3s5OnzRLxT3fMQ4ct-21" value="" style="endArrow=none;html=1;" edge="1" parent="1" source="JYo3s5OnzRLxT3fMQ4ct-19" target="JYo3s5OnzRLxT3fMQ4ct-8">
          <mxGeometry width="50" height="50" relative="1" as="geometry">
            <mxPoint x="380" y="440" as="sourcePoint" />
            <mxPoint x="430" y="390" as="targetPoint" />
          </mxGeometry>
        </mxCell>
        <mxCell id="JYo3s5OnzRLxT3fMQ4ct-23" value="bill" style="ellipse;whiteSpace=wrap;html=1;" vertex="1" parent="1">
          <mxGeometry x="440" y="343" width="120" height="80" as="geometry" />
        </mxCell>
        <mxCell id="JYo3s5OnzRLxT3fMQ4ct-24" value="" style="endArrow=none;html=1;" edge="1" parent="1" source="JYo3s5OnzRLxT3fMQ4ct-23" target="JYo3s5OnzRLxT3fMQ4ct-8">
          <mxGeometry width="50" height="50" relative="1" as="geometry">
            <mxPoint x="380" y="440" as="sourcePoint" />
            <mxPoint x="430" y="390" as="targetPoint" />
          </mxGeometry>
        </mxCell>
        <mxCell id="JYo3s5OnzRLxT3fMQ4ct-25" value="" style="endArrow=none;html=1;entryX=0;entryY=0.5;entryDx=0;entryDy=0;exitX=1;exitY=0.5;exitDx=0;exitDy=0;" edge="1" parent="1" source="JYo3s5OnzRLxT3fMQ4ct-23" target="JYo3s5OnzRLxT3fMQ4ct-9">
          <mxGeometry width="50" height="50" relative="1" as="geometry">
            <mxPoint x="540" y="430" as="sourcePoint" />
            <mxPoint x="430" y="390" as="targetPoint" />
          </mxGeometry>
        </mxCell>
        <mxCell id="JYo3s5OnzRLxT3fMQ4ct-26" value="query" style="ellipse;whiteSpace=wrap;html=1;" vertex="1" parent="1">
          <mxGeometry x="365" y="423" width="120" height="80" as="geometry" />
        </mxCell>
        <mxCell id="JYo3s5OnzRLxT3fMQ4ct-27" value="" style="endArrow=none;html=1;" edge="1" parent="1" source="JYo3s5OnzRLxT3fMQ4ct-4" target="JYo3s5OnzRLxT3fMQ4ct-26">
          <mxGeometry width="50" height="50" relative="1" as="geometry">
            <mxPoint x="380" y="440" as="sourcePoint" />
            <mxPoint x="430" y="390" as="targetPoint" />
          </mxGeometry>
        </mxCell>
        <mxCell id="JYo3s5OnzRLxT3fMQ4ct-29" value="" style="endArrow=none;html=1;" edge="1" parent="1" source="JYo3s5OnzRLxT3fMQ4ct-26" target="JYo3s5OnzRLxT3fMQ4ct-9">
          <mxGeometry width="50" height="50" relative="1" as="geometry">
            <mxPoint x="485" y="445.1606382978724" as="sourcePoint" />
            <mxPoint x="643.1642176366661" y="480.83171716912045" as="targetPoint" />
          </mxGeometry>
        </mxCell>
      </root>
    </mxGraphModel>
  </diagram>
</mxfile>
